<?xml version="1.0" standalone="no"?>
<!DOCTYPE svg PUBLIC "-//W3C//DTD SVG 20010904//EN"
 "http://www.w3.org/TR/2001/REC-SVG-20010904/DTD/svg10.dtd">
<svg version="1.0" xmlns="http://www.w3.org/2000/svg"
 width="300.000000pt" height="300.000000pt" viewBox="0 0 226.000000 222.000000"
 preserveAspectRatio="xMidYMid meet">

<g transform="translate(0.000000,222.000000) scale(0.100000,-0.100000)"
fill="#009b8f" stroke="none">
<path d="M1367 2083 c-37 -306 -161 -854 -187 -827 -12 13 -49 107 -75 194
l-22 75 73 3 74 3 0 134 0 135 -230 0 -230 0 0 205 0 205 -140 0 -140 0 0
-205 0 -205 -235 0 -235 0 0 -135 0 -135 75 0 c58 0 75 -3 75 -14 0 -27 -61
-200 -99 -282 l-40 -84 135 0 134 0 16 38 c29 65 81 226 94 285 11 57 12 57
48 57 l37 0 -3 -179 -3 -180 108 -3 c59 -2 123 -2 141 0 l32 3 0 180 0 179 33
0 32 0 22 -90 c12 -49 39 -133 60 -187 l39 -98 132 -3 133 -3 -7 26 -6 25 88
0 89 0 89 -266 90 -265 -28 -57 c-65 -132 -298 -502 -317 -502 -5 0 -9 40 -9
89 l0 90 -140 73 c-77 40 -140 78 -140 84 0 6 9 22 21 35 27 31 80 119 115
192 l28 57 83 0 83 0 0 125 0 125 -307 0 c-182 0 -314 4 -323 10 -8 5 -10 10
-4 10 10 0 23 26 61 118 4 9 -29 12 -145 12 l-149 0 -33 -75 -33 -76 -136 1
c-75 1 -144 1 -153 0 -16 0 -18 -13 -18 -125 l0 -125 95 0 c52 0 95 -4 95 -9
0 -5 -12 -35 -26 -67 -51 -114 -63 -94 108 -180 148 -74 152 -77 127 -90 -46
-24 -168 -53 -272 -65 -56 -6 -108 -13 -114 -15 -10 -2 -13 -38 -13 -132 l0
-128 63 3 c242 14 415 65 607 179 l45 26 233 -116 c127 -64 234 -116 237 -116
3 0 5 11 5 25 l0 25 183 0 183 0 81 138 c44 75 88 152 97 170 9 17 20 32 24
32 4 0 39 -77 77 -170 l70 -170 153 0 c83 0 152 2 152 4 0 2 -63 151 -139 331
l-139 327 14 40 c22 63 83 299 100 385 21 112 52 333 60 436 l7 87 43 0 44 0
0 155 0 155 -279 0 c-154 0 -282 3 -284 8 -3 4 -1 34 3 67 4 33 10 81 13 108
l5 47 -147 0 -147 0 -17 -137z m486 -445 c-11 -105 -46 -339 -59 -398 -28
-128 -57 -230 -65 -230 -5 0 -9 2 -9 5 0 3 -33 119 -74 258 l-74 252 15 78 16
77 128 0 127 0 -5 -42z m-1063 -920 c0 -7 -9 -26 -19 -42 -11 -17 -17 -34 -14
-39 3 -6 1 -7 -5 -3 -7 4 -12 4 -12 -1 0 -4 -13 -22 -29 -39 l-30 -32 -95 50
c-53 27 -96 51 -96 54 0 3 7 18 15 34 l16 30 134 0 c101 0 135 -3 135 -12z"/>
<path d="M128 2020 l46 -160 128 0 c96 0 128 3 128 13 -1 6 -20 77 -44 157
l-42 145 -131 3 -130 3 45 -161z"/>
<path d="M899 2138 c-6 -24 -24 -90 -40 -147 -16 -58 -29 -111 -29 -118 0 -11
25 -13 127 -11 l127 3 43 150 c23 83 42 153 43 158 0 4 -58 7 -130 7 l-129 0
-12 -42z"/>
</g>
</svg>
